<svg xmlns:dc="http://purl.org/dc/elements/1.1/" xmlns:cc="http://creativecommons.org/ns#" xmlns:rdf="http://www.w3.org/1999/02/22-rdf-syntax-ns#" xmlns:svg="http://www.w3.org/2000/svg" xmlns="http://www.w3.org/2000/svg" xmlns:sodipodi="http://sodipodi.sourceforge.net/DTD/sodipodi-0.dtd" xmlns:inkscape="http://www.inkscape.org/namespaces/inkscape" width="24" height="24" viewBox="0 0 6.3499999 6.3500002" version="1.1" id="svg8" inkscape:version="0.92.4 (5da689c313, 2019-01-14)" sodipodi:docname="3. Money business, cash, dollar, finance, currency, investment.svg">
  <defs id="defs2">
    <pattern y="0" x="0" height="6" width="6" patternUnits="userSpaceOnUse" id="EMFhbasepattern"></pattern>
    <pattern y="0" x="0" height="6" width="6" patternUnits="userSpaceOnUse" id="EMFhbasepattern-3"></pattern>
  </defs>
  <sodipodi:namedview id="base" pagecolor="#ffffff" bordercolor="#666666" borderopacity="1.0" inkscape:pageopacity="0.0" inkscape:pageshadow="2" inkscape:zoom="11.313708" inkscape:cx="5.3247868" inkscape:cy="9.988175" inkscape:document-units="px" inkscape:current-layer="layer1" showgrid="false" units="px" inkscape:window-width="1280" inkscape:window-height="658" inkscape:window-x="-8" inkscape:window-y="-8" inkscape:window-maximized="1" showguides="true" guidecolor="#af0000" guideopacity="0.49803922" guidehicolor="#ff4b4b" guidehiopacity="0.49803922">
    <inkscape:grid type="xygrid" id="grid815" empspacing="1" originx="0" originy="0" spacingx="0" spacingy="0" snapvisiblegridlinesonly="true" visible="true" enabled="true" dotted="false"></inkscape:grid>
  </sodipodi:namedview>
  <metadata id="metadata5">
    <rdf:rdf>
      <cc:work rdf:about="">
        <dc:format>image/svg+xml</dc:format>
        <dc:type rdf:resource="http://purl.org/dc/dcmitype/StillImage"></dc:type>
        <dc:title></dc:title>
      </cc:work>
    </rdf:rdf>
  </metadata>
  <g inkscape:label="Guides" inkscape:groupmode="layer" id="layer1" transform="translate(0,-290.64999)">
    <path style="fill: rgb(255, 255, 255); fill-opacity: 1; stroke: none; stroke-width: 1; stroke-linecap: round; stroke-linejoin: round; stroke-miterlimit: 4; stroke-dasharray: none; stroke-opacity: 1;" d="M 12 3.5019531 C 7.3041286 3.5019531 3.5019531 7.3041259 3.5019531 12 C 3.5019531 16.695874 7.3041286 20.498047 12 20.498047 C 16.695871 20.498047 20.498047 16.695874 20.498047 12 C 20.498047 7.3041259 16.695871 3.5019531 12 3.5019531 z M 12 5.7382812 C 15.443639 5.7382812 18.261719 8.556359 18.261719 12 C 18.261719 15.443641 15.443639 18.261719 12 18.261719 C 8.5563609 18.261719 5.7382812 15.443641 5.7382812 12 C 5.7382812 8.556359 8.5563609 5.7382812 12 5.7382812 z M 11.777344 7.0117188 C 9.1302519 7.1299589 7 9.3250977 7 12 C 7 14.674939 9.1302519 16.870041 11.777344 16.988281 L 11.777344 15.220703 C 11.374841 15.220703 11.016183 15.175134 10.703125 15.085938 C 10.390067 14.996362 10.077129 14.862311 9.8535156 14.728516 L 9.8535156 13.699219 L 9.8984375 13.699219 C 9.9431606 13.744195 10.076767 13.834253 10.210938 13.923828 C 10.345103 14.013403 10.479113 14.101508 10.613281 14.146484 C 10.747447 14.236059 10.926778 14.281573 11.150391 14.326172 C 11.329279 14.415747 11.553731 14.416016 11.777344 14.416016 L 11.777344 12.179688 C 11.643178 12.13471 11.552333 12.089844 11.462891 12.089844 C 11.373444 12.044867 11.28476 12.044598 11.195312 12 C 10.703364 11.865827 10.389629 11.643573 10.166016 11.375 C 9.9871264 11.061677 9.8535156 10.703263 9.8535156 10.300781 C 9.8535156 9.7640885 10.032842 9.3167167 10.390625 8.9589844 C 10.703683 8.6014411 11.151228 8.4214928 11.777344 8.3320312 L 11.777344 7.0117188 z M 12.267578 7.0136719 L 12.267578 8.3320312 C 12.580636 8.3320312 12.849051 8.3776 13.162109 8.4667969 C 13.475168 8.5559937 13.744937 8.6467533 13.923828 8.7363281 L 13.923828 9.7636719 L 13.878906 9.7636719 C 13.655294 9.5849002 13.430644 9.4503528 13.207031 9.3164062 C 12.983419 9.2268314 12.670081 9.1387264 12.267578 9.09375 L 12.267578 11.373047 C 12.357024 11.373047 12.447862 11.417969 12.582031 11.417969 C 12.671478 11.462945 12.759963 11.463214 12.804688 11.507812 C 13.251913 11.597388 13.565649 11.821762 13.833984 12.089844 C 14.057596 12.35819 14.146484 12.715088 14.146484 13.207031 C 14.146484 13.743724 14.01208 14.19102 13.654297 14.548828 C 13.296515 14.906371 12.848971 15.131069 12.267578 15.175781 L 12.267578 16.986328 C 14.8938 16.845353 17 14.659798 17 12 C 17 9.3402389 14.8938 7.1546466 12.267578 7.0136719 z M 11.777344 9.09375 C 11.464285 9.1387264 11.194516 9.2271004 11.015625 9.40625 C 10.792013 9.5850217 10.703125 9.8082829 10.703125 10.166016 C 10.703125 10.479338 10.746892 10.703927 10.925781 10.882812 C 11.059947 11.016987 11.374841 11.150983 11.777344 11.285156 L 11.777344 9.09375 z M 12.267578 12.267578 L 12.267578 14.416016 C 12.62536 14.371039 12.895328 14.280713 13.074219 14.101562 C 13.253108 13.922791 13.341797 13.699605 13.341797 13.341797 C 13.341797 12.984254 13.251353 12.761126 13.117188 12.626953 C 12.938298 12.448181 12.670081 12.356775 12.267578 12.267578 z " transform="matrix(0.26458334,0,0,0.26458334,0,290.64999)" id="path1216"></path>
  </g>
</svg>